<svg class="w-8 h-8 sm:w-10 sm:h-10 cursor-pointer" xmlns="http://www.w3.org/2000/svg" viewBox="0 0 2462 2500"><g fill="none" fill-rule="evenodd" stroke="none" stroke-width="1"><g fill="#fff" fill-rule="nonzero"><path d="M2461 1250v-4.4C2458.8 559.8 1905.6 0 1230.6 0 552.3 0 .1 559.8.1 1250c0 688 552.2 1250 1230.4 1250 313.1 0 607.6-118.5 835.9-334.8 45.6-43.5 48.9-114.1 4.4-159.8-41.3-45.7-112-48.9-157.6-7.6l-2.2 2.2c-183.7 173.9-431.5 273.9-685.9 273.9-297.8 0-564.1-130.4-748.9-339.1l526.1-842.4v390.2c0 187 72.8 246.7 133.7 264.1 60.9 17.4 152.2 4.3 252.2-152.2l288-467.4c9.8-14.1 17.4-29.3 27.2-39.1v237c0 173.9 70.7 315.2 191.3 382.6 108.7 63.1 246.7 55.4 360.9-14.1 140.2-92.4 215.2-252.2 205.4-443.5zm-319.6 244.6c-43.5 27.2-94.6 31.5-133.7 9.8-48.9-29.3-77.2-94.6-77.2-183.7v-273.9c0-130.4-51.1-225-138-250-147.8-43.5-259.8 138-301.1 206.5l-260.9 418.5V905.4c-3.3-118.5-41.3-188-114.1-209.8-48.9-14.1-120.7-7.6-191.3 98.9l-583.7 934.8C263.2 1581.5 223 1417.4 223 1250c0-564.1 453.3-1022.8 1007.6-1022.8 554.4 0 1007.6 458.7 1007.6 1022.8v4.4c4.3 109.7-29.4 196.7-96.8 240.2z"></path></g></g></svg>