<svg xmlns="http://www.w3.org/2000/svg" class="w-7 h-7 sm:w-9 sm:h-9  cursor-pointer" viewBox="0 0 159 160"><g fill="none" fill-rule="evenodd" stroke="none" stroke-width="1"><g><path fill="#8DC63F" d="M158.8 79.9c.1 32.1-19 61.1-48.6 73.5-29.6 12.4-63.7 5.8-86.5-16.8C.9 114-6 79.9 6.1 50.2c12.1-29.7 41-49.1 73-49.3 43.9-.1 79.5 35.2 79.7 79z"></path><path fill="#F9E988" d="M152.9 79.9c.1 29.7-17.6 56.5-45 68s-58.9 5.3-80-15.5C6.8 111.5.4 80 11.6 52.6 22.8 25.1 49.5 7.2 79.1 7c40.6-.2 73.6 32.4 73.8 72.9z"></path><path fill="#FFF" d="M80.9 11.7c4.7-.8 9.4-.8 14.1 0 4.7.7 9.3 2.3 13.5 4.5 4.2 2.3 7.8 5.4 11.4 8.3 3.6 2.9 7.2 5.9 10.6 9.2 3.5 3.2 6.5 6.9 9 10.9 2.6 4 4.7 8.3 6.3 12.7 3.1 9 4.1 18.7 2.6 27.9h-.5c-1.5-9.2-3.6-17.9-6.9-26.2-1.5-4.2-3.4-8.3-5.4-12.2-2.2-3.9-4.5-7.8-7.1-11.4-2.6-3.7-5.9-7-9.6-9.7-3.7-2.7-8-4.4-12.1-6-4.1-1.6-8.3-3.3-12.6-4.6-4.3-1.2-8.7-2.2-13.3-3.1v-.3z"></path><path fill="#8BC53F" d="M116.7 54c-5.3-1.5-10.8-3.7-16.4-5.9-.3-1.4-1.6-3.1-4.1-5.3-3.6-3.2-10.5-3.1-16.4-1.7-6.5-1.5-13-2.1-19.2-.6-50.7 14-22 48-40.6 82.3 2.6 5.6 31.2 38.4 72.5 29.6 0 0-14.1-33.9 17.8-50.2 25.9-13.2 44.5-37.8 6.4-48.2z"></path><path fill="#009345" d="M79.8 41.1c3.7.3 17.1 4.6 20.5 7-2.9-8.3-12.5-9.4-20.5-7z"></path><path fill="#FFF" fill-rule="nonzero" d="M123 76.3c0 2.7-3.3 4.1-5.2 2.2-1.9-1.9-.6-5.2 2.1-5.3 1.7.1 3.1 1.4 3.1 3.1zM83.3 62.2c0 5.7-3.5 10.9-8.8 13.1-5.3 2.2-11.4 1-15.5-3.1S53.7 62 55.9 56.7c2.2-5.3 7.4-8.8 13.1-8.8 3.8 0 7.4 1.5 10 4.1 2.8 2.8 4.3 6.4 4.3 10.2z"></path><path fill="#58595B" d="M79.1 62.3c0 4-2.4 7.7-6.2 9.2-3.7 1.5-8 .7-10.9-2.2-2.9-2.9-3.7-7.1-2.2-10.9 1.5-3.7 5.2-6.2 9.2-6.2 5.6.1 10.1 4.6 10.1 10.1z"></path><path fill="#8BC53F" d="M134.5 82.6c-11.5 8.1-24.6 14.2-43.1 14.2-8.7 0-10.4-9.2-16.2-4.7-3 2.3-13.4 7.5-21.7 7.2-8.3-.4-21.7-5.3-25.4-22.9-1.5 17.7-2.2 30.7-8.9 45.6 13.2 21.2 44.7 37.5 73.3 30.5-3.1-21.5 15.7-42.5 26.2-53.2 4.1-4.2 11.8-10.8 15.8-16.7z"></path><path fill="#58595B" d="M134 83.1c-3.6 3.3-7.8 5.7-12.1 7.8-4.4 2.1-8.9 3.7-13.6 5-4.7 1.2-9.6 2.1-14.5 1.7-5-.4-10-2.1-13.3-5.8l.2-.2c4 2.6 8.7 3.5 13.3 3.7 4.7.1 9.4-.2 14-1.1 4.6-1 9.2-2.4 13.6-4.2 4.4-1.8 8.7-3.9 12.5-6.9h-.1z"></path></g></g></svg>